<?xml version="1.0" encoding="UTF-8"?>
<svg id="Laag_2" data-name="Laag 2" xmlns="http://www.w3.org/2000/svg" viewBox="0 0 398.8 381.42">
  <defs>
    <style>
      .cls-1 {
        fill: #fff;
        stroke-width: 0px;
      }
    </style>
  </defs>
  <g id="Capa_1" data-name="Capa 1">
    <g>
      <path class="cls-1" d="M295.23,134c-9.9-44.67-19.8-89.34-29.71-134h-50.15c2.39,44.67,4.78,89.34,7.17,134h72.68Z"/>
      <path class="cls-1" d="M226.35,205.31c3.15,58.7,6.29,117.4,9.43,176.11h114.28c-13.01-58.7-26.02-117.4-39.03-176.11h-84.68Z"/>
      <path class="cls-1" d="M183.43,0h-50.15c-9.9,44.67-19.8,89.33-29.7,134h72.68c2.39-44.67,4.77-89.34,7.17-134Z"/>
      <path class="cls-1" d="M48.74,381.42h114.28c3.15-58.7,6.29-117.4,9.43-176.11h-84.67c-13.01,58.7-26.02,117.41-39.04,176.11Z"/>
      <path class="cls-1" d="M394.18,152.52H4.63c-2.56,0-4.63,2.07-4.63,4.63v25.02c0,2.56,2.07,4.63,4.63,4.63h25.05v37.48c0,2.56,2.07,4.63,4.63,4.63h25c2.12,0,3.96-1.44,4.48-3.49l9.82-38.62h251.6l9.82,38.62c.52,2.05,2.37,3.49,4.49,3.49h24.99c2.56,0,4.63-2.07,4.63-4.63v-37.48h25.05c2.56,0,4.63-2.07,4.63-4.63v-25.02c0-2.56-2.07-4.63-4.63-4.63Z"/>
    </g>
  </g>
</svg>