<?xml version="1.0" encoding="UTF-8"?>
<svg id="Laag_2" data-name="Laag 2" xmlns="http://www.w3.org/2000/svg" viewBox="0 0 489.98 234.32">
  <defs>
    <style>
      .cls-1 {
        fill: #fff;
        stroke-width: 0px;
      }
    </style>
  </defs>
  <g id="Laag_1-2" data-name="Laag 1">
    <g id="_36_Taxi" data-name=" 36 Taxi">
      <path class="cls-1" d="M204.21,92.1c-.47-1.23-1.85-1.84-3.08-1.36-.63.24-1.12.74-1.36,1.36l-14,36c-.48,1.22.12,2.59,1.33,3.07.28.11.58.17.88.17h28c1.31,0,2.37-1.06,2.38-2.36,0-.3-.06-.6-.17-.88l-13.98-36Z"/>
      <path class="cls-1" d="M488.8,189l-42.25-162C442.38,11.08,428-.01,411.55,0H78.17c-16.48,0-30.87,11.14-35,27.09L1.17,189.09c-5.01,19.33,6.59,39.06,25.91,44.07,2.97.77,6.02,1.16,9.09,1.16h417.65c19.97,0,36.16-16.17,36.16-36.14,0-3.1-.4-6.18-1.18-9.18ZM143.17,64c0,6.77-5.48,12.26-12.25,12.27h-8.39c-1.75,0-3.17,1.42-3.18,3.17v90.4c0,6.97-5.65,12.62-12.62,12.62-6.97,0-12.61-5.65-12.61-12.62v-90.4c0-1.75-1.43-3.17-3.18-3.17h-7.75c-6.78,0-12.27-5.49-12.27-12.27h0c0-6.77,5.49-12.26,12.26-12.26h47.73c6.77,0,12.26,5.49,12.26,12.26ZM247.17,182.46c-5.01,0-9.49-3.09-11.27-7.77l-5.58-14.69c-1.02-2.69-3.59-4.47-6.47-4.47h-43.86c-2.84,0-5.39,1.74-6.44,4.38l-5.88,14.9c-2.53,6.19-9.59,9.15-15.78,6.62-6.05-2.47-9.04-9.3-6.76-15.42l39.53-102.5c2.73-7.09,9.55-11.77,17.15-11.77,7.61-.01,14.45,4.67,17.18,11.78l39.45,102.58c2.38,6.21-.73,13.18-6.94,15.56-1.37.53-2.83.8-4.31.8h-.02ZM360.6,182.46c-3.95,0-7.63-1.99-9.79-5.3l-26.6-40.66-26.59,40.6c-2.17,3.33-5.88,5.33-9.85,5.33-6.5,0-11.78-5.26-11.78-11.76,0-2.3.67-4.55,1.93-6.47l32.25-49.1-29.59-45.21c-3.54-5.41-2.02-12.67,3.39-16.21,5.41-3.54,12.67-2.02,16.21,3.39l24,36.67,24.07-36.69c2.17-3.3,5.85-5.28,9.79-5.28,6.46,0,11.7,5.24,11.7,11.7,0,2.28-.66,4.51-1.91,6.41l-29.63,45.22,32.22,49.22c3.55,5.41,2.05,12.67-3.36,16.22-1.91,1.26-4.15,1.93-6.44,1.92h-.02ZM419.06,170.1c0,6.82-5.53,12.35-12.35,12.35h0c-6.82,0-12.35-5.52-12.36-12.34h0v-106.01c0-6.82,5.53-12.35,12.35-12.35h.01c6.82,0,12.35,5.53,12.35,12.35h0v106Z"/>
    </g>
  </g>
</svg>