<?xml version="1.0" encoding="UTF-8"?><svg id="Laag_2" xmlns="http://www.w3.org/2000/svg" xmlns:xlink="http://www.w3.org/1999/xlink" viewBox="0 0 2448 204"><defs><style>.cls-1{fill:#010101;}.cls-2{fill:url(#Naamloos_verloop_19-8);}.cls-3{fill:url(#Naamloos_verloop_19-7);}.cls-4{fill:url(#Naamloos_verloop_19-6);}.cls-5{fill:url(#Naamloos_verloop_19-2);}.cls-6{fill:url(#Naamloos_verloop_19-5);}.cls-7{fill:url(#Naamloos_verloop_19-4);}.cls-8{fill:url(#Naamloos_verloop_19-3);}.cls-9{fill:url(#Naamloos_verloop_19-9);}.cls-10{fill:url(#Naamloos_verloop_19-20);}.cls-11{fill:url(#Naamloos_verloop_19-21);}.cls-12{fill:url(#Naamloos_verloop_19-23);}.cls-13{fill:url(#Naamloos_verloop_19-24);}.cls-14{fill:url(#Naamloos_verloop_19-10);}.cls-15{fill:url(#Naamloos_verloop_19-19);}.cls-16{fill:url(#Naamloos_verloop_19-12);}.cls-17{fill:url(#Naamloos_verloop_19-11);}.cls-18{fill:url(#Naamloos_verloop_19-18);}.cls-19{fill:url(#Naamloos_verloop_19-17);}.cls-20{fill:url(#Naamloos_verloop_19-14);}.cls-21{fill:url(#Naamloos_verloop_19-13);}.cls-22{fill:url(#Naamloos_verloop_19-16);}.cls-23{fill:url(#Naamloos_verloop_19-15);}.cls-24{fill:url(#Naamloos_verloop_19-22);}.cls-25{fill:url(#Naamloos_verloop_19);}</style><linearGradient id="Naamloos_verloop_19" x1="102" y1="153" x2="0" y2="153" gradientUnits="userSpaceOnUse"><stop offset="0" stop-color="#36a9e1"/><stop offset="1" stop-color="#0798cf"/></linearGradient><linearGradient id="Naamloos_verloop_19-2" x1="204" y1="51" x2="102" y2="51" xlink:href="#Naamloos_verloop_19"/><linearGradient id="Naamloos_verloop_19-3" x1="306" x2="204" xlink:href="#Naamloos_verloop_19"/><linearGradient id="Naamloos_verloop_19-4" x1="408" y1="51" x2="306" y2="51" xlink:href="#Naamloos_verloop_19"/><linearGradient id="Naamloos_verloop_19-5" x1="510" x2="408" xlink:href="#Naamloos_verloop_19"/><linearGradient id="Naamloos_verloop_19-6" x1="612" y1="51" x2="510" y2="51" xlink:href="#Naamloos_verloop_19"/><linearGradient id="Naamloos_verloop_19-7" x1="714" x2="612" xlink:href="#Naamloos_verloop_19"/><linearGradient id="Naamloos_verloop_19-8" x1="816" y1="51" x2="714" y2="51" xlink:href="#Naamloos_verloop_19"/><linearGradient id="Naamloos_verloop_19-9" x1="918" x2="816" xlink:href="#Naamloos_verloop_19"/><linearGradient id="Naamloos_verloop_19-10" x1="1020" y1="51" x2="918" y2="51" xlink:href="#Naamloos_verloop_19"/><linearGradient id="Naamloos_verloop_19-11" x1="1122" x2="1020" xlink:href="#Naamloos_verloop_19"/><linearGradient id="Naamloos_verloop_19-12" x1="1224" y1="51" x2="1122" y2="51" xlink:href="#Naamloos_verloop_19"/><linearGradient id="Naamloos_verloop_19-13" x1="1326" x2="1224" xlink:href="#Naamloos_verloop_19"/><linearGradient id="Naamloos_verloop_19-14" x1="1428" y1="51" x2="1326" y2="51" xlink:href="#Naamloos_verloop_19"/><linearGradient id="Naamloos_verloop_19-15" x1="1530" x2="1428" xlink:href="#Naamloos_verloop_19"/><linearGradient id="Naamloos_verloop_19-16" x1="1632" y1="51" x2="1530" y2="51" xlink:href="#Naamloos_verloop_19"/><linearGradient id="Naamloos_verloop_19-17" x1="1734" x2="1632" xlink:href="#Naamloos_verloop_19"/><linearGradient id="Naamloos_verloop_19-18" x1="1836" y1="51" x2="1734" y2="51" xlink:href="#Naamloos_verloop_19"/><linearGradient id="Naamloos_verloop_19-19" x1="1938" x2="1836" xlink:href="#Naamloos_verloop_19"/><linearGradient id="Naamloos_verloop_19-20" x1="2040" y1="51" x2="1938" y2="51" xlink:href="#Naamloos_verloop_19"/><linearGradient id="Naamloos_verloop_19-21" x1="2142" x2="2040" xlink:href="#Naamloos_verloop_19"/><linearGradient id="Naamloos_verloop_19-22" x1="2244" y1="51" x2="2142" y2="51" xlink:href="#Naamloos_verloop_19"/><linearGradient id="Naamloos_verloop_19-23" x1="2346" x2="2244" xlink:href="#Naamloos_verloop_19"/><linearGradient id="Naamloos_verloop_19-24" x1="2448" y1="51" x2="2346" y2="51" xlink:href="#Naamloos_verloop_19"/></defs><g id="Laag_1-2"><g><rect class="cls-1" width="102" height="102"/><rect class="cls-25" y="102" width="102" height="102"/><rect class="cls-1" x="102" y="102" width="102" height="102"/><rect class="cls-5" x="102" width="102" height="102"/><polyline class="cls-1" points="306 0 306 102 204 102 204 0"/><rect class="cls-8" x="204" y="102" width="102" height="102"/><rect class="cls-1" x="306" y="102" width="102" height="102"/><polyline class="cls-7" points="408 0 408 102 306 102 306 0"/><rect class="cls-1" x="408" width="102" height="102"/><rect class="cls-6" x="408" y="102" width="102" height="102"/><rect class="cls-1" x="510" y="102" width="102" height="102"/><rect class="cls-4" x="510" width="102" height="102"/><polyline class="cls-1" points="714 0 714 102 612 102 612 0"/><rect class="cls-3" x="612" y="102" width="102" height="102"/><rect class="cls-1" x="714" y="102" width="102" height="102"/><polyline class="cls-2" points="816 0 816 102 714 102 714 0"/><rect class="cls-1" x="816" width="102" height="102"/><rect class="cls-9" x="816" y="102" width="102" height="102"/><rect class="cls-1" x="918" y="102" width="102" height="102"/><rect class="cls-14" x="918" width="102" height="102"/><polyline class="cls-1" points="1122 0 1122 102 1020 102 1020 0"/><rect class="cls-17" x="1020" y="102" width="102" height="102"/><rect class="cls-1" x="1122" y="102" width="102" height="102"/><polyline class="cls-16" points="1224 0 1224 102 1122 102 1122 0"/><rect class="cls-1" x="1224" width="102" height="102"/><rect class="cls-21" x="1224" y="102" width="102" height="102"/><rect class="cls-1" x="1326" y="102" width="102" height="102"/><rect class="cls-20" x="1326" width="102" height="102"/><polyline class="cls-1" points="1530 0 1530 102 1428 102 1428 0"/><rect class="cls-23" x="1428" y="102" width="102" height="102"/><rect class="cls-1" x="1530" y="102" width="102" height="102"/><polyline class="cls-22" points="1632 0 1632 102 1530 102 1530 0"/><rect class="cls-1" x="1632" width="102" height="102"/><rect class="cls-19" x="1632" y="102" width="102" height="102"/><rect class="cls-1" x="1734" y="102" width="102" height="102"/><rect class="cls-18" x="1734" width="102" height="102"/><polyline class="cls-1" points="1938 0 1938 102 1836 102 1836 0"/><rect class="cls-15" x="1836" y="102" width="102" height="102"/><rect class="cls-1" x="1938" y="102" width="102" height="102"/><polyline class="cls-10" points="2040 0 2040 102 1938 102 1938 0"/><rect class="cls-1" x="2040" width="102" height="102"/><rect class="cls-11" x="2040" y="102" width="102" height="102"/><rect class="cls-1" x="2142" y="102" width="102" height="102"/><rect class="cls-24" x="2142" width="102" height="102"/><polyline class="cls-1" points="2346 0 2346 102 2244 102 2244 0"/><rect class="cls-12" x="2244" y="102" width="102" height="102"/><rect class="cls-1" x="2346" y="102" width="102" height="102"/><polyline class="cls-13" points="2448 0 2448 102 2346 102 2346 0"/></g></g></svg>