<?xml version="1.0" encoding="UTF-8"?><svg id="Laag_2" xmlns="http://www.w3.org/2000/svg" xmlns:xlink="http://www.w3.org/1999/xlink" viewBox="0 0 4896 204"><defs><style>.cls-1{fill:#010101;}.cls-2{fill:url(#Naamloos_verloop_19-8);}.cls-3{fill:url(#Naamloos_verloop_19-7);}.cls-4{fill:url(#Naamloos_verloop_19-6);}.cls-5{fill:url(#Naamloos_verloop_19-2);}.cls-6{fill:url(#Naamloos_verloop_19-5);}.cls-7{fill:url(#Naamloos_verloop_19-4);}.cls-8{fill:url(#Naamloos_verloop_19-3);}.cls-9{fill:url(#Naamloos_verloop_19-9);}.cls-10{fill:url(#Naamloos_verloop_19-29);}.cls-11{fill:url(#Naamloos_verloop_19-20);}.cls-12{fill:url(#Naamloos_verloop_19-21);}.cls-13{fill:url(#Naamloos_verloop_19-23);}.cls-14{fill:url(#Naamloos_verloop_19-24);}.cls-15{fill:url(#Naamloos_verloop_19-10);}.cls-16{fill:url(#Naamloos_verloop_19-39);}.cls-17{fill:url(#Naamloos_verloop_19-46);}.cls-18{fill:url(#Naamloos_verloop_19-42);}.cls-19{fill:url(#Naamloos_verloop_19-47);}.cls-20{fill:url(#Naamloos_verloop_19-48);}.cls-21{fill:url(#Naamloos_verloop_19-45);}.cls-22{fill:url(#Naamloos_verloop_19-31);}.cls-23{fill:url(#Naamloos_verloop_19-38);}.cls-24{fill:url(#Naamloos_verloop_19-37);}.cls-25{fill:url(#Naamloos_verloop_19-36);}.cls-26{fill:url(#Naamloos_verloop_19-35);}.cls-27{fill:url(#Naamloos_verloop_19-34);}.cls-28{fill:url(#Naamloos_verloop_19-33);}.cls-29{fill:url(#Naamloos_verloop_19-32);}.cls-30{fill:url(#Naamloos_verloop_19-19);}.cls-31{fill:url(#Naamloos_verloop_19-12);}.cls-32{fill:url(#Naamloos_verloop_19-11);}.cls-33{fill:url(#Naamloos_verloop_19-40);}.cls-34{fill:url(#Naamloos_verloop_19-18);}.cls-35{fill:url(#Naamloos_verloop_19-17);}.cls-36{fill:url(#Naamloos_verloop_19-14);}.cls-37{fill:url(#Naamloos_verloop_19-13);}.cls-38{fill:url(#Naamloos_verloop_19-16);}.cls-39{fill:url(#Naamloos_verloop_19-15);}.cls-40{fill:url(#Naamloos_verloop_19-43);}.cls-41{fill:url(#Naamloos_verloop_19-44);}.cls-42{fill:url(#Naamloos_verloop_19-41);}.cls-43{fill:url(#Naamloos_verloop_19-30);}.cls-44{fill:url(#Naamloos_verloop_19-22);}.cls-45{fill:url(#Naamloos_verloop_19-26);}.cls-46{fill:url(#Naamloos_verloop_19-25);}.cls-47{fill:url(#Naamloos_verloop_19-27);}.cls-48{fill:url(#Naamloos_verloop_19-28);}.cls-49{fill:url(#Naamloos_verloop_19);}</style><linearGradient id="Naamloos_verloop_19" x1="102" y1="153" x2="0" y2="153" gradientUnits="userSpaceOnUse"><stop offset="0" stop-color="#36a9e1"/><stop offset="1" stop-color="#0798cf"/></linearGradient><linearGradient id="Naamloos_verloop_19-2" x1="204" y1="51" x2="102" y2="51" xlink:href="#Naamloos_verloop_19"/><linearGradient id="Naamloos_verloop_19-3" x1="306" x2="204" xlink:href="#Naamloos_verloop_19"/><linearGradient id="Naamloos_verloop_19-4" x1="408" y1="51" x2="306" y2="51" xlink:href="#Naamloos_verloop_19"/><linearGradient id="Naamloos_verloop_19-5" x1="510" x2="408" xlink:href="#Naamloos_verloop_19"/><linearGradient id="Naamloos_verloop_19-6" x1="612" y1="51" x2="510" y2="51" xlink:href="#Naamloos_verloop_19"/><linearGradient id="Naamloos_verloop_19-7" x1="714" x2="612" xlink:href="#Naamloos_verloop_19"/><linearGradient id="Naamloos_verloop_19-8" x1="816" y1="51" x2="714" y2="51" xlink:href="#Naamloos_verloop_19"/><linearGradient id="Naamloos_verloop_19-9" x1="918" x2="816" xlink:href="#Naamloos_verloop_19"/><linearGradient id="Naamloos_verloop_19-10" x1="1020" y1="51" x2="918" y2="51" xlink:href="#Naamloos_verloop_19"/><linearGradient id="Naamloos_verloop_19-11" x1="1122" x2="1020" xlink:href="#Naamloos_verloop_19"/><linearGradient id="Naamloos_verloop_19-12" x1="1224" y1="51" x2="1122" y2="51" xlink:href="#Naamloos_verloop_19"/><linearGradient id="Naamloos_verloop_19-13" x1="1326" x2="1224" xlink:href="#Naamloos_verloop_19"/><linearGradient id="Naamloos_verloop_19-14" x1="1428" y1="51" x2="1326" y2="51" xlink:href="#Naamloos_verloop_19"/><linearGradient id="Naamloos_verloop_19-15" x1="1530" x2="1428" xlink:href="#Naamloos_verloop_19"/><linearGradient id="Naamloos_verloop_19-16" x1="1632" y1="51" x2="1530" y2="51" xlink:href="#Naamloos_verloop_19"/><linearGradient id="Naamloos_verloop_19-17" x1="1734" x2="1632" xlink:href="#Naamloos_verloop_19"/><linearGradient id="Naamloos_verloop_19-18" x1="1836" y1="51" x2="1734" y2="51" xlink:href="#Naamloos_verloop_19"/><linearGradient id="Naamloos_verloop_19-19" x1="1938" x2="1836" xlink:href="#Naamloos_verloop_19"/><linearGradient id="Naamloos_verloop_19-20" x1="2040" y1="51" x2="1938" y2="51" xlink:href="#Naamloos_verloop_19"/><linearGradient id="Naamloos_verloop_19-21" x1="2142" x2="2040" xlink:href="#Naamloos_verloop_19"/><linearGradient id="Naamloos_verloop_19-22" x1="2244" y1="51" x2="2142" y2="51" xlink:href="#Naamloos_verloop_19"/><linearGradient id="Naamloos_verloop_19-23" x1="2346" x2="2244" xlink:href="#Naamloos_verloop_19"/><linearGradient id="Naamloos_verloop_19-24" x1="2448" y1="51" x2="2346" y2="51" xlink:href="#Naamloos_verloop_19"/><linearGradient id="Naamloos_verloop_19-25" x1="2550" x2="2448" xlink:href="#Naamloos_verloop_19"/><linearGradient id="Naamloos_verloop_19-26" x1="2652" y1="51" x2="2550" y2="51" xlink:href="#Naamloos_verloop_19"/><linearGradient id="Naamloos_verloop_19-27" x1="2754" x2="2652" xlink:href="#Naamloos_verloop_19"/><linearGradient id="Naamloos_verloop_19-28" x1="2856" y1="51" x2="2754" y2="51" xlink:href="#Naamloos_verloop_19"/><linearGradient id="Naamloos_verloop_19-29" x1="2958" x2="2856" xlink:href="#Naamloos_verloop_19"/><linearGradient id="Naamloos_verloop_19-30" x1="3060" y1="51" x2="2958" y2="51" xlink:href="#Naamloos_verloop_19"/><linearGradient id="Naamloos_verloop_19-31" x1="3162" x2="3060" xlink:href="#Naamloos_verloop_19"/><linearGradient id="Naamloos_verloop_19-32" x1="3264" y1="51" x2="3162" y2="51" xlink:href="#Naamloos_verloop_19"/><linearGradient id="Naamloos_verloop_19-33" x1="3366" x2="3264" xlink:href="#Naamloos_verloop_19"/><linearGradient id="Naamloos_verloop_19-34" x1="3468" y1="51" x2="3366" y2="51" xlink:href="#Naamloos_verloop_19"/><linearGradient id="Naamloos_verloop_19-35" x1="3570" x2="3468" xlink:href="#Naamloos_verloop_19"/><linearGradient id="Naamloos_verloop_19-36" x1="3672" y1="51" x2="3570" y2="51" xlink:href="#Naamloos_verloop_19"/><linearGradient id="Naamloos_verloop_19-37" x1="3774" x2="3672" xlink:href="#Naamloos_verloop_19"/><linearGradient id="Naamloos_verloop_19-38" x1="3876" y1="51" x2="3774" y2="51" xlink:href="#Naamloos_verloop_19"/><linearGradient id="Naamloos_verloop_19-39" x1="3978" x2="3876" xlink:href="#Naamloos_verloop_19"/><linearGradient id="Naamloos_verloop_19-40" x1="4080" y1="51" x2="3978" y2="51" xlink:href="#Naamloos_verloop_19"/><linearGradient id="Naamloos_verloop_19-41" x1="4182" x2="4080" xlink:href="#Naamloos_verloop_19"/><linearGradient id="Naamloos_verloop_19-42" x1="4284" y1="51" x2="4182" y2="51" xlink:href="#Naamloos_verloop_19"/><linearGradient id="Naamloos_verloop_19-43" x1="4386" x2="4284" xlink:href="#Naamloos_verloop_19"/><linearGradient id="Naamloos_verloop_19-44" x1="4488" y1="51" x2="4386" y2="51" xlink:href="#Naamloos_verloop_19"/><linearGradient id="Naamloos_verloop_19-45" x1="4590" x2="4488" xlink:href="#Naamloos_verloop_19"/><linearGradient id="Naamloos_verloop_19-46" x1="4692" y1="51" x2="4590" y2="51" xlink:href="#Naamloos_verloop_19"/><linearGradient id="Naamloos_verloop_19-47" x1="4794" x2="4692" xlink:href="#Naamloos_verloop_19"/><linearGradient id="Naamloos_verloop_19-48" x1="4896" y1="51" x2="4794" y2="51" xlink:href="#Naamloos_verloop_19"/></defs><g id="Laag_1-2"><g><rect class="cls-1" width="102" height="102"/><rect class="cls-49" y="102" width="102" height="102"/><rect class="cls-1" x="102" y="102" width="102" height="102"/><rect class="cls-5" x="102" width="102" height="102"/><polyline class="cls-1" points="306 0 306 102 204 102 204 0"/><rect class="cls-8" x="204" y="102" width="102" height="102"/><rect class="cls-1" x="306" y="102" width="102" height="102"/><polyline class="cls-7" points="408 0 408 102 306 102 306 0"/><rect class="cls-1" x="408" width="102" height="102"/><rect class="cls-6" x="408" y="102" width="102" height="102"/><rect class="cls-1" x="510" y="102" width="102" height="102"/><rect class="cls-4" x="510" width="102" height="102"/><polyline class="cls-1" points="714 0 714 102 612 102 612 0"/><rect class="cls-3" x="612" y="102" width="102" height="102"/><rect class="cls-1" x="714" y="102" width="102" height="102"/><polyline class="cls-2" points="816 0 816 102 714 102 714 0"/><rect class="cls-1" x="816" width="102" height="102"/><rect class="cls-9" x="816" y="102" width="102" height="102"/><rect class="cls-1" x="918" y="102" width="102" height="102"/><rect class="cls-15" x="918" width="102" height="102"/><polyline class="cls-1" points="1122 0 1122 102 1020 102 1020 0"/><rect class="cls-32" x="1020" y="102" width="102" height="102"/><rect class="cls-1" x="1122" y="102" width="102" height="102"/><polyline class="cls-31" points="1224 0 1224 102 1122 102 1122 0"/><rect class="cls-1" x="1224" width="102" height="102"/><rect class="cls-37" x="1224" y="102" width="102" height="102"/><rect class="cls-1" x="1326" y="102" width="102" height="102"/><rect class="cls-36" x="1326" width="102" height="102"/><polyline class="cls-1" points="1530 0 1530 102 1428 102 1428 0"/><rect class="cls-39" x="1428" y="102" width="102" height="102"/><rect class="cls-1" x="1530" y="102" width="102" height="102"/><polyline class="cls-38" points="1632 0 1632 102 1530 102 1530 0"/><rect class="cls-1" x="1632" width="102" height="102"/><rect class="cls-35" x="1632" y="102" width="102" height="102"/><rect class="cls-1" x="1734" y="102" width="102" height="102"/><rect class="cls-34" x="1734" width="102" height="102"/><polyline class="cls-1" points="1938 0 1938 102 1836 102 1836 0"/><rect class="cls-30" x="1836" y="102" width="102" height="102"/><rect class="cls-1" x="1938" y="102" width="102" height="102"/><polyline class="cls-11" points="2040 0 2040 102 1938 102 1938 0"/><rect class="cls-1" x="2040" width="102" height="102"/><rect class="cls-12" x="2040" y="102" width="102" height="102"/><rect class="cls-1" x="2142" y="102" width="102" height="102"/><rect class="cls-44" x="2142" width="102" height="102"/><polyline class="cls-1" points="2346 0 2346 102 2244 102 2244 0"/><rect class="cls-13" x="2244" y="102" width="102" height="102"/><rect class="cls-1" x="2346" y="102" width="102" height="102"/><polyline class="cls-14" points="2448 0 2448 102 2346 102 2346 0"/><rect class="cls-1" x="2448" width="102" height="102"/><rect class="cls-46" x="2448" y="102" width="102" height="102"/><rect class="cls-1" x="2550" y="102" width="102" height="102"/><rect class="cls-45" x="2550" width="102" height="102"/><polyline class="cls-1" points="2754 0 2754 102 2652 102 2652 0"/><rect class="cls-47" x="2652" y="102" width="102" height="102"/><rect class="cls-1" x="2754" y="102" width="102" height="102"/><polyline class="cls-48" points="2856 0 2856 102 2754 102 2754 0"/><rect class="cls-1" x="2856" width="102" height="102"/><rect class="cls-10" x="2856" y="102" width="102" height="102"/><rect class="cls-1" x="2958" y="102" width="102" height="102"/><rect class="cls-43" x="2958" width="102" height="102"/><polyline class="cls-1" points="3162 0 3162 102 3060 102 3060 0"/><rect class="cls-22" x="3060" y="102" width="102" height="102"/><rect class="cls-1" x="3162" y="102" width="102" height="102"/><polyline class="cls-29" points="3264 0 3264 102 3162 102 3162 0"/><rect class="cls-1" x="3264" width="102" height="102"/><rect class="cls-28" x="3264" y="102" width="102" height="102"/><rect class="cls-1" x="3366" y="102" width="102" height="102"/><rect class="cls-27" x="3366" width="102" height="102"/><polyline class="cls-1" points="3570 0 3570 102 3468 102 3468 0"/><rect class="cls-26" x="3468" y="102" width="102" height="102"/><rect class="cls-1" x="3570" y="102" width="102" height="102"/><polyline class="cls-25" points="3672 0 3672 102 3570 102 3570 0"/><rect class="cls-1" x="3672" width="102" height="102"/><rect class="cls-24" x="3672" y="102" width="102" height="102"/><rect class="cls-1" x="3774" y="102" width="102" height="102"/><rect class="cls-23" x="3774" width="102" height="102"/><polyline class="cls-1" points="3978 0 3978 102 3876 102 3876 0"/><rect class="cls-16" x="3876" y="102" width="102" height="102"/><rect class="cls-1" x="3978" y="102" width="102" height="102"/><polyline class="cls-33" points="4080 0 4080 102 3978 102 3978 0"/><rect class="cls-1" x="4080" width="102" height="102"/><rect class="cls-42" x="4080" y="102" width="102" height="102"/><rect class="cls-1" x="4182" y="102" width="102" height="102"/><rect class="cls-18" x="4182" width="102" height="102"/><polyline class="cls-1" points="4386 0 4386 102 4284 102 4284 0"/><rect class="cls-40" x="4284" y="102" width="102" height="102"/><rect class="cls-1" x="4386" y="102" width="102" height="102"/><polyline class="cls-41" points="4488 0 4488 102 4386 102 4386 0"/><rect class="cls-1" x="4488" width="102" height="102"/><rect class="cls-21" x="4488" y="102" width="102" height="102"/><rect class="cls-1" x="4590" y="102" width="102" height="102"/><rect class="cls-17" x="4590" width="102" height="102"/><polyline class="cls-1" points="4794 0 4794 102 4692 102 4692 0"/><rect class="cls-19" x="4692" y="102" width="102" height="102"/><rect class="cls-1" x="4794" y="102" width="102" height="102"/><polyline class="cls-20" points="4896 0 4896 102 4794 102 4794 0"/></g></g></svg>